<svg width="345" height="216" viewBox="0 0 345 216" fill="none" xmlns="http://www.w3.org/2000/svg">
<path d="M91.2 170.7V213H68.4V170.7H0.600001V149.4L65.7 2.99999H91.2V149.4H108V170.7H91.2ZM22.2 149.4H68.4V46.8L22.2 149.4ZM124.317 53.7C124.317 37.5 128.217 24.7 136.017 15.3C144.017 5.69999 156.117 0.899995 172.317 0.899995C188.517 0.899995 200.617 5.69999 208.617 15.3C216.617 24.7 220.617 37.5 220.617 53.7V162C220.617 178.2 216.617 191.1 208.617 200.7C200.617 210.3 188.517 215.1 172.317 215.1C156.117 215.1 144.017 210.3 136.017 200.7C128.217 191.1 124.317 178.2 124.317 162V53.7ZM147.417 163.5C147.417 173.1 149.417 180.6 153.417 186C157.617 191.2 163.917 193.8 172.317 193.8C180.917 193.8 187.217 191.2 191.217 186C195.217 180.6 197.217 173.1 197.217 163.5V52.5C197.217 42.9 195.217 35.4 191.217 30C187.217 24.6 180.917 21.9 172.317 21.9C163.917 21.9 157.617 24.6 153.417 30C149.417 35.4 147.417 42.9 147.417 52.5V163.5ZM327.919 170.7V213H305.119V170.7H237.319V149.4L302.419 2.99999H327.919V149.4H344.719V170.7H327.919ZM258.919 149.4H305.119V46.8L258.919 149.4Z" fill="#5C8EE6"/>
</svg>
