<svg width="30" height="24" viewBox="0 0 30 24" fill="none" xmlns="http://www.w3.org/2000/svg">
<path d="M29.8813 5.54874C29.6938 4.98624 29.3188 4.56436 28.8032 4.28311L20.5063 0.0643634C20.1782 -0.0762616 19.8032 0.0174884 19.5688 0.298738C18.8188 1.37686 16.9438 2.07999 14.9751 2.07999C13.0532 2.07999 11.1782 1.37686 10.4282 0.298738C10.1938 0.0174884 9.81882 -0.0762616 9.4907 0.0643634L1.19382 4.28311C0.678196 4.56436 0.303196 4.98624 0.115696 5.54874C-0.0718041 6.11124 -0.0249291 6.67374 0.209446 7.18936L2.50632 11.9237C3.02195 12.955 4.33445 13.3769 5.3657 12.9081L7.52195 11.9706V21.8144C7.52195 23.0331 8.45945 23.9706 9.6782 23.9706H20.3188C21.5376 23.9706 22.5219 23.0331 22.5219 21.8144L22.4751 11.9706L24.5844 12.8612C25.6626 13.3769 26.9751 12.955 27.4907 11.8769L29.7876 7.18936C30.0219 6.67374 30.0688 6.11124 29.8813 5.54874ZM28.4282 6.53311L26.1782 11.2206C25.9907 11.5487 25.5688 11.6894 25.2407 11.5019L22.0532 10.1425C21.8188 10.0487 21.5376 10.0956 21.3501 10.2362C21.1157 10.3769 20.9751 10.6112 20.9751 10.8456L21.0219 21.8144C21.0219 22.1894 20.6938 22.4706 20.3188 22.4706H9.6782C9.3032 22.4706 9.02195 22.1894 9.02195 21.8144V10.8456C9.02195 10.6112 8.88132 10.3769 8.64695 10.2362C8.5532 10.1425 8.41257 10.0956 8.27195 10.0956C8.13132 10.0956 8.03757 10.1425 7.94382 10.1425L4.75632 11.5019C4.4282 11.6894 4.00632 11.5487 3.8657 11.2206L1.56882 6.53311C1.47507 6.34561 1.47507 6.20499 1.52195 6.01749C1.56882 5.87686 1.70945 5.73624 1.89695 5.64249L9.63132 1.65811C10.8032 2.87686 12.8188 3.57999 15.0219 3.57999C17.2251 3.57999 19.1938 2.87686 20.3657 1.65811L28.1001 5.64249C28.2876 5.73624 28.4282 5.87686 28.4751 6.01749C28.5219 6.20499 28.5219 6.34561 28.4282 6.53311Z" fill="#5C8EE6"/>
</svg>
