<svg width="200" height="63" viewBox="0 0 200 63" fill="none" xmlns="http://www.w3.org/2000/svg">
<g clip-path="url(#clip0_1_267)">
<path fill-rule="evenodd" clip-rule="evenodd" d="M31.4182 6.99058C34.6938 6.99058 37.819 7.63529 40.6735 8.80501V17.6482V31.169C40.6735 36.2383 36.5642 40.3479 31.4949 40.3479C29.3393 40.3479 27.3572 39.6048 25.7909 38.3609V46.4863C27.5666 47.1481 29.4887 47.5097 31.4949 47.5097C41.4639 47.5097 47.878 39.6388 47.878 30.0847V4.65147C43.0912 1.70167 37.4533 -0.000152588 31.4182 -0.000152588C14.0665 -0.000152588 0 14.0664 0 31.4181C0 41.3274 4.58758 50.165 11.7546 55.9235V45.9137C8.76061 41.8588 6.99073 36.8453 6.99073 31.4181C6.99073 17.9273 17.9274 6.99058 31.4182 6.99058Z" fill="#292D33"/>
<path fill-rule="evenodd" clip-rule="evenodd" d="M31.5174 55.8663C28.2415 55.8663 25.1163 55.2216 22.2618 54.0519V45.2087V31.6878C22.2618 26.6186 26.3714 22.509 31.4407 22.509C33.5963 22.509 35.5781 23.2521 37.1445 24.496V16.3705C35.3687 15.7088 33.4469 15.3472 31.4407 15.3472C21.4717 15.3472 15.0576 23.218 15.0576 32.7722V58.2054C19.8441 61.1552 25.482 62.857 31.5174 62.857C48.8691 62.857 62.9356 48.7905 62.9356 31.4388C62.9356 21.5295 58.3481 12.6919 51.181 6.93335V16.9432C54.175 20.998 55.9449 26.0116 55.9449 31.4388C55.9449 44.9296 45.0082 55.8663 31.5174 55.8663Z" fill="#5C8EE6"/>
<path d="M101.862 32.2192C101.862 32.3705 101.802 32.4916 101.711 32.5826C101.62 32.6736 101.468 32.7339 101.317 32.7339H98.1084C97.9571 32.7339 97.836 32.6736 97.745 32.5826C97.6545 32.4916 97.5636 32.3705 97.5334 32.2192L96.1407 26.4677H89.1784L87.7856 32.2192C87.7555 32.3705 87.665 32.4916 87.574 32.5826C87.483 32.6736 87.3619 32.7339 87.2106 32.7339H84.0019C83.8506 32.7339 83.6993 32.6736 83.6083 32.5826C83.5174 32.4916 83.457 32.3705 83.457 32.2192C83.457 32.189 83.457 32.1891 83.4872 32.1589C83.4872 32.1287 83.4872 32.0981 83.4872 32.0679L88.4521 13.0879C88.6335 12.3913 88.9059 11.8163 89.2387 11.4228C89.5719 11.0292 89.9655 10.6964 90.359 10.4844C90.7526 10.2727 91.1461 10.1516 91.5698 10.0908C91.9634 10.0305 92.3268 9.99985 92.6595 9.99985C92.9927 9.99985 93.3556 10.0305 93.7794 10.0908C94.1729 10.1516 94.5971 10.2727 94.9906 10.4844C95.3842 10.6964 95.7471 11.0292 96.0803 11.4228C96.4131 11.8163 96.6855 12.3913 96.8674 13.0879L101.832 32.0679C101.832 32.0981 101.832 32.1287 101.862 32.1589C101.862 32.1891 101.862 32.189 101.862 32.2192ZM93.144 14.0263C93.1134 13.8444 93.0531 13.7233 92.9927 13.6328C92.9319 13.572 92.8108 13.5418 92.6595 13.5418C92.5082 13.5418 92.3871 13.572 92.3268 13.6328C92.266 13.7233 92.2056 13.8444 92.175 14.0263L89.9956 23.0167H95.3234L93.144 14.0263Z" fill="#292D33"/>
<path d="M116.847 31.9166C116.847 32.1287 116.816 32.28 116.725 32.3704C116.634 32.4614 116.453 32.5218 116.241 32.5524C116.029 32.6127 115.696 32.6735 115.303 32.7037C114.879 32.764 114.425 32.8248 113.94 32.855C113.456 32.8851 112.972 32.9153 112.457 32.9459C111.943 32.9761 111.488 32.9761 111.095 32.9761C110.096 32.9761 109.188 32.8851 108.34 32.7338C107.492 32.5825 106.766 32.2498 106.13 31.7954C105.494 31.3416 105.01 30.7359 104.647 29.9187C104.284 29.1014 104.102 28.072 104.102 26.7703V10.8477C104.102 10.6964 104.162 10.5447 104.284 10.424C104.405 10.3029 104.556 10.2421 104.708 10.2421H107.704C107.856 10.2421 108.007 10.3029 108.128 10.424C108.249 10.5447 108.31 10.6964 108.31 10.8477V26.7703C108.31 27.7694 108.492 28.4656 108.824 28.829C109.158 29.1919 109.793 29.3738 110.671 29.3738H116.241C116.392 29.3738 116.544 29.4341 116.665 29.5553C116.786 29.6764 116.847 29.8277 116.847 29.979V31.9166ZM123.93 32.1287C123.93 32.28 123.869 32.4313 123.748 32.5524C123.627 32.6735 123.476 32.7338 123.324 32.7338H120.328C120.176 32.7338 120.025 32.6735 119.904 32.5524C119.783 32.4313 119.722 32.28 119.722 32.1287V10.8176C119.722 10.6658 119.783 10.5145 119.904 10.3934C120.025 10.3029 120.176 10.2421 120.328 10.2421H123.324C123.476 10.2421 123.627 10.3029 123.748 10.3934C123.869 10.5145 123.93 10.6658 123.93 10.8176V32.1287ZM145.18 32.2192C145.18 32.3704 145.12 32.4916 145.029 32.5825C144.939 32.6735 144.787 32.7338 144.635 32.7338H141.427C141.275 32.7338 141.154 32.6735 141.063 32.5825C140.973 32.4916 140.882 32.3704 140.852 32.2192L139.459 26.4677H132.497L131.104 32.2192C131.074 32.3704 130.983 32.4916 130.892 32.5825C130.801 32.6735 130.681 32.7338 130.529 32.7338H127.32C127.169 32.7338 127.018 32.6735 126.927 32.5825C126.836 32.4916 126.775 32.3704 126.775 32.2192C126.775 32.189 126.775 32.189 126.806 32.1588C126.806 32.1287 126.806 32.098 126.806 32.0679L131.77 13.0879C131.952 12.3913 132.224 11.8163 132.557 11.4227C132.89 11.0292 133.284 10.6964 133.677 10.4844C134.071 10.2727 134.464 10.1516 134.888 10.0908C135.282 10.0305 135.645 9.99985 135.978 9.99985C136.311 9.99985 136.674 10.0305 137.098 10.0908C137.492 10.1516 137.915 10.2727 138.309 10.4844C138.703 10.6964 139.065 11.0292 139.399 11.4227C139.731 11.8163 140.004 12.3913 140.186 13.0879L145.15 32.0679C145.15 32.098 145.15 32.1287 145.18 32.1588C145.18 32.189 145.18 32.189 145.18 32.2192ZM136.462 14.0263C136.432 13.8444 136.371 13.7232 136.311 13.6327C136.25 13.572 136.129 13.5418 135.978 13.5418C135.827 13.5418 135.705 13.572 135.645 13.6327C135.584 13.7232 135.524 13.8444 135.494 14.0263L133.314 23.0167H138.642L136.462 14.0263ZM165.038 31.523C165.038 31.8562 164.918 32.1588 164.706 32.3704C164.463 32.6127 164.161 32.7338 163.828 32.7338H160.77C160.407 32.7338 160.074 32.6735 159.771 32.5825C159.438 32.4916 159.166 32.189 158.923 31.6441L152.203 16.9018C152.112 16.7505 152.022 16.6596 151.931 16.6596C151.84 16.6596 151.78 16.7505 151.78 16.9018V32.1287C151.78 32.28 151.719 32.4313 151.628 32.5524C151.507 32.6735 151.356 32.7338 151.205 32.7338H148.631C148.48 32.7338 148.329 32.6735 148.208 32.5524C148.086 32.4313 148.026 32.28 148.026 32.1287V11.4529C148.026 11.1202 148.147 10.8176 148.389 10.5753C148.601 10.3632 148.904 10.2421 149.237 10.2421H152.506C152.839 10.2421 153.081 10.3029 153.293 10.424C153.475 10.5447 153.656 10.8176 153.838 11.2107L160.891 26.7703C160.952 26.9216 161.043 27.0125 161.133 27.0125C161.224 27.0125 161.285 26.9216 161.285 26.7401V10.8176C161.285 10.424 161.467 10.2421 161.86 10.2421H164.463C164.857 10.2421 165.038 10.424 165.038 10.8176V31.523ZM182.959 31.7954C182.959 32.0075 182.899 32.1588 182.778 32.2498C182.657 32.3403 182.505 32.4312 182.293 32.4916C182.172 32.5217 181.96 32.5826 181.688 32.6127C181.385 32.6735 181.022 32.7338 180.598 32.7946C180.174 32.8248 179.69 32.8851 179.176 32.9153C178.661 32.9459 178.085 32.9761 177.51 32.9761C176.602 32.9761 175.634 32.855 174.634 32.5825C173.636 32.3101 172.697 31.8256 171.88 31.1295C171.032 30.4333 170.366 29.4949 169.791 28.3143C169.246 27.1336 168.974 25.5896 168.974 23.7128V19.2631C168.974 17.3562 169.246 15.8121 169.791 14.6013C170.366 13.4207 171.032 12.4823 171.88 11.7861C172.697 11.09 173.636 10.6356 174.634 10.3632C175.634 10.121 176.602 9.99985 177.51 9.99985C178.085 9.99985 178.661 10.0305 179.176 10.0606C179.69 10.0908 180.174 10.1516 180.598 10.1818C181.022 10.2421 181.385 10.3029 181.688 10.3632C181.96 10.424 182.172 10.4542 182.293 10.4844C182.505 10.5447 182.657 10.6055 182.778 10.6964C182.899 10.7869 182.959 10.9689 182.959 11.1805V13.209C182.959 13.3905 182.929 13.5418 182.838 13.6629C182.747 13.784 182.566 13.8444 182.354 13.8444H182.293C182.021 13.8142 181.718 13.784 181.355 13.7539C180.961 13.7233 180.568 13.7232 180.144 13.6931C179.72 13.6629 179.296 13.6629 178.842 13.6327C178.388 13.6026 177.964 13.6026 177.571 13.6026C176.935 13.6026 176.33 13.6931 175.815 13.875C175.27 14.0866 174.816 14.3892 174.423 14.8134C174.029 15.2673 173.727 15.8423 173.515 16.5691C173.303 17.2954 173.181 18.2036 173.181 19.2631V23.7128C173.181 24.7723 173.303 25.6504 173.515 26.3767C173.727 27.1035 174.029 27.6785 174.423 28.1328C174.816 28.5867 175.27 28.8893 175.815 29.0712C176.33 29.2829 176.935 29.3738 177.571 29.3738C177.964 29.3738 178.388 29.3738 178.842 29.3436C179.296 29.313 179.72 29.313 180.144 29.2829C180.568 29.2527 180.961 29.2225 181.355 29.1919C181.718 29.1617 182.021 29.1617 182.293 29.1316H182.354C182.566 29.1316 182.747 29.1919 182.838 29.313C182.929 29.4341 182.959 29.5854 182.959 29.7674V31.7954ZM200.002 31.9166C200.002 32.1287 199.972 32.28 199.881 32.3704C199.79 32.4614 199.609 32.5218 199.396 32.5524C199.154 32.5825 198.882 32.6429 198.609 32.6735C198.307 32.7338 197.943 32.7946 197.52 32.8248C197.066 32.855 196.551 32.9153 195.945 32.9459C195.31 32.9761 194.553 32.9761 193.645 32.9761C192.646 32.9761 191.738 32.8851 190.891 32.7338C190.043 32.5825 189.286 32.2498 188.681 31.7954C188.045 31.3416 187.53 30.7359 187.167 29.9187C186.804 29.1014 186.622 28.072 186.622 26.7703V16.2057C186.622 14.9039 186.804 13.875 187.167 13.0573C187.53 12.24 188.045 11.6042 188.681 11.1503C189.286 10.6964 190.043 10.3934 190.891 10.2421C191.738 10.0908 192.646 9.99985 193.645 9.99985C194.553 9.99985 195.31 9.99984 195.945 10.0305C196.551 10.0606 197.066 10.121 197.52 10.1516C197.943 10.1818 198.307 10.2421 198.609 10.2727C198.882 10.3331 199.154 10.3934 199.396 10.424C199.609 10.4542 199.79 10.5145 199.881 10.6055C199.972 10.6964 200.002 10.8477 200.002 11.0594V12.9969C200.002 13.1482 199.941 13.2995 199.82 13.4207C199.7 13.5418 199.548 13.6026 199.396 13.6026H193.221C192.343 13.6026 191.708 13.784 191.375 14.1474C191.011 14.5103 190.83 15.2065 190.83 16.2057V19.4752H199.034C199.185 19.4752 199.336 19.5355 199.457 19.6567C199.578 19.7778 199.639 19.9291 199.639 20.0804V22.2598C199.639 22.4115 199.578 22.5628 199.457 22.6839C199.336 22.8051 199.185 22.8654 199.034 22.8654H190.83V26.7703C190.83 27.7694 191.011 28.4656 191.375 28.829C191.708 29.1919 192.343 29.3738 193.221 29.3738H199.396C199.548 29.3738 199.7 29.4341 199.82 29.5553C199.941 29.6764 200.002 29.8277 200.002 29.979V31.9166Z" fill="#292D33"/>
<path d="M94.1087 42.8382C94.1087 43.688 93.9542 44.4022 93.6646 44.9809C93.356 45.5601 92.9508 46.0238 92.4292 46.3709C91.9275 46.738 91.3293 46.9886 90.6726 47.1236C89.9973 47.2782 89.2831 47.3557 88.5299 47.3557C88.2793 47.3557 87.9897 47.3362 87.6421 47.3167C87.314 47.2977 87.0244 47.2977 86.8118 47.2782V52.3164C86.8118 52.4129 86.7733 52.5094 86.7153 52.5869C86.6382 52.664 86.5417 52.7025 86.4452 52.7025H84.515C84.4185 52.7025 84.322 52.664 84.2445 52.5869C84.1674 52.5094 84.1289 52.4129 84.1289 52.3164V39.0355C84.1289 38.8424 84.1869 38.7074 84.3025 38.6108C84.399 38.5338 84.5536 38.4758 84.7466 38.4567C85.2483 38.3792 85.8275 38.3212 86.4837 38.2637C87.1404 38.2247 87.8351 38.2057 88.5494 38.2057C89.2831 38.2057 89.9973 38.2827 90.6726 38.4178C91.3293 38.5528 91.9275 38.8039 92.4292 39.1515C92.9508 39.4991 93.356 39.9623 93.6646 40.5219C93.9542 41.1011 94.1087 41.8154 94.1087 42.6647V42.8382ZM91.4258 42.6452C91.4258 41.8349 91.1938 41.2557 90.7116 40.9276C90.2289 40.58 89.4952 40.4064 88.5299 40.4064C88.4334 40.4064 88.2983 40.4064 88.1438 40.4064C87.9702 40.4254 87.8156 40.4254 87.6421 40.4254C87.4685 40.4449 87.314 40.4449 87.1789 40.4449C87.0244 40.4639 86.9084 40.4639 86.8118 40.4834V45.097C86.8893 45.097 87.0049 45.097 87.1789 45.097C87.3335 45.1165 87.507 45.1165 87.6806 45.1165C87.8546 45.1355 88.0087 45.1355 88.1827 45.1355C88.3368 45.155 88.4528 45.155 88.5299 45.155C89.5722 45.155 90.3255 44.9619 90.7691 44.5758C91.2133 44.1897 91.4258 43.6105 91.4258 42.8192V42.6452ZM106.637 52.4709C106.637 52.6255 106.56 52.7025 106.405 52.7025H104.05C103.954 52.7025 103.876 52.664 103.818 52.5869C103.761 52.5094 103.722 52.4129 103.664 52.3164L100.884 47.1817H100.614C100.363 47.1817 100.054 47.1626 99.7261 47.1431C99.398 47.1236 99.1084 47.1236 98.8963 47.1046V52.3164C98.8963 52.4129 98.8573 52.5094 98.7998 52.5869C98.7223 52.664 98.6257 52.7025 98.5292 52.7025H96.5991C96.5025 52.7025 96.406 52.664 96.329 52.5869C96.2514 52.5094 96.2129 52.4129 96.2129 52.3164V39.0355C96.2129 38.8424 96.2709 38.7074 96.3865 38.6108C96.483 38.5338 96.6376 38.4758 96.8306 38.4567C97.3323 38.3792 97.9115 38.3212 98.5682 38.2637C99.2244 38.2247 99.9192 38.2057 100.633 38.2057C101.367 38.2057 102.081 38.2827 102.757 38.4178C103.413 38.5723 104.012 38.8234 104.514 39.1515C105.035 39.4796 105.44 39.9237 105.749 40.4834C106.039 41.0431 106.193 41.7383 106.193 42.5681V42.7417C106.193 43.765 105.961 44.6143 105.479 45.2515C105.015 45.8882 104.378 46.3709 103.568 46.68L106.598 52.3164C106.617 52.3553 106.637 52.4129 106.637 52.4709ZM103.51 42.5681C103.51 41.8349 103.278 41.3137 102.796 40.9851C102.313 40.657 101.579 40.5029 100.614 40.5029C100.518 40.5029 100.382 40.5029 100.228 40.5029C100.054 40.5219 99.9001 40.5219 99.7261 40.5219C99.5525 40.5414 99.398 40.5414 99.2629 40.5414C99.1084 40.5605 98.9928 40.5605 98.8963 40.58V44.9234C98.9733 44.9234 99.0894 44.9234 99.2629 44.9234C99.4175 44.9424 99.5911 44.9424 99.7646 44.9424C99.9387 44.9619 100.093 44.9619 100.267 44.9619C100.421 44.9809 100.537 44.9809 100.614 44.9809C101.618 44.9809 102.351 44.8269 102.815 44.4987C103.278 44.1706 103.51 43.5915 103.51 42.7417V42.5681Z" fill="#5C8EE6"/>
<path d="M119.03 46.8346C119.03 47.8959 118.894 48.8227 118.624 49.5755C118.335 50.3283 117.968 50.946 117.466 51.4286C116.984 51.9113 116.405 52.2779 115.729 52.5095C115.073 52.7411 114.339 52.8571 113.548 52.8571C112.737 52.8571 112.003 52.7411 111.347 52.5095C110.671 52.2779 110.092 51.9113 109.61 51.4286C109.127 50.946 108.741 50.3283 108.471 49.5755C108.181 48.8227 108.046 47.8959 108.046 46.8346V44.2282C108.046 43.1668 108.181 42.2595 108.471 41.4873C108.741 40.7345 109.127 40.0973 109.61 39.6147C110.092 39.132 110.671 38.7849 111.347 38.5528C112.003 38.3212 112.737 38.2057 113.548 38.2057C114.339 38.2057 115.073 38.3212 115.729 38.5528C116.405 38.7849 116.984 39.132 117.466 39.6147C117.968 40.0973 118.335 40.7345 118.624 41.4873C118.894 42.2595 119.03 43.1668 119.03 44.2282V46.8346ZM116.347 44.2282C116.347 42.9348 116.115 42.0084 115.652 41.4098C115.208 40.831 114.494 40.5414 113.548 40.5414C112.582 40.5414 111.868 40.831 111.424 41.4098C110.961 42.0084 110.729 42.9348 110.729 44.2282V46.8346C110.729 48.1275 110.961 49.0543 111.424 49.6335C111.868 50.2317 112.582 50.5213 113.548 50.5213C114.494 50.5213 115.208 50.2317 115.652 49.6335C116.115 49.0543 116.347 48.1275 116.347 46.8346V44.2282ZM131.944 46.9501C131.944 48.8612 131.423 50.3282 130.361 51.3321C129.318 52.3554 127.813 52.8571 125.883 52.8571C125.516 52.8571 125.169 52.8571 124.782 52.8376C124.396 52.8186 124.03 52.7991 123.682 52.78C123.315 52.7606 123.006 52.722 122.717 52.7025C122.427 52.6835 122.196 52.6445 122.061 52.6255C121.887 52.606 121.771 52.5485 121.694 52.4519C121.597 52.3554 121.558 52.2199 121.558 52.0268V39.0355C121.558 38.8424 121.597 38.7074 121.694 38.6108C121.771 38.5143 121.887 38.4567 122.061 38.4373C122.196 38.4178 122.427 38.3792 122.717 38.3602C123.006 38.3407 123.315 38.3022 123.682 38.2827C124.03 38.2637 124.396 38.2442 124.782 38.2247C125.169 38.2057 125.516 38.2057 125.883 38.2057C127.813 38.2057 129.318 38.7074 130.361 39.7112C131.423 40.7345 131.944 42.2015 131.944 44.1126V46.9501ZM129.261 44.1126C129.261 43.3984 129.183 42.7997 129.01 42.3366C128.836 41.8539 128.585 41.4873 128.296 41.1977C127.987 40.9276 127.62 40.7345 127.215 40.6185C126.79 40.522 126.346 40.4639 125.863 40.4639C125.497 40.4639 125.188 40.4639 124.937 40.4834C124.686 40.5029 124.454 40.5029 124.242 40.522V50.5598C124.454 50.5793 124.686 50.5793 124.937 50.5983C125.188 50.6178 125.497 50.6178 125.863 50.6178C126.346 50.6178 126.79 50.5598 127.215 50.4443C127.62 50.3477 127.987 50.1547 128.296 49.8651C128.585 49.595 128.836 49.2279 129.01 48.7452C129.183 48.2821 129.261 47.6838 129.261 46.9696V44.1126ZM144.955 47.3943C144.955 48.4171 144.82 49.2859 144.569 49.9806C144.298 50.6759 143.931 51.2356 143.468 51.6602C142.985 52.0848 142.426 52.3939 141.789 52.5675C141.132 52.7606 140.418 52.8571 139.646 52.8571C138.874 52.8571 138.16 52.7606 137.523 52.5675C136.866 52.3939 136.307 52.0848 135.843 51.6602C135.36 51.2356 134.994 50.6759 134.743 49.9806C134.473 49.2859 134.338 48.4171 134.338 47.3943V38.7268C134.338 38.6303 134.376 38.5338 134.454 38.4567C134.531 38.3987 134.627 38.3602 134.724 38.3602H136.635C136.731 38.3602 136.828 38.3987 136.905 38.4567C136.982 38.5338 137.021 38.6303 137.021 38.7268V47.4133C137.021 47.9539 137.06 48.4366 137.137 48.8418C137.214 49.2474 137.349 49.595 137.561 49.8651C137.754 50.1352 138.024 50.3282 138.353 50.4633C138.681 50.5983 139.125 50.6564 139.646 50.6564C140.168 50.6564 140.592 50.5983 140.939 50.4633C141.267 50.3282 141.538 50.1352 141.75 49.8651C141.943 49.595 142.078 49.2474 142.156 48.8418C142.233 48.4366 142.271 47.9539 142.271 47.4133V38.7268C142.271 38.6303 142.31 38.5338 142.387 38.4567C142.464 38.3987 142.561 38.3602 142.657 38.3602H144.569C144.665 38.3602 144.762 38.3987 144.839 38.4567C144.916 38.5338 144.955 38.6303 144.955 38.7268V47.3943ZM156.286 52.1043C156.286 52.2394 156.247 52.3359 156.17 52.3939C156.093 52.4519 155.996 52.5095 155.861 52.5485C155.784 52.5675 155.649 52.606 155.475 52.6255C155.282 52.664 155.05 52.7026 154.78 52.7411C154.51 52.7606 154.201 52.7991 153.873 52.8186C153.545 52.8376 153.178 52.8571 152.811 52.8571C152.232 52.8571 151.614 52.78 150.977 52.606C150.34 52.4324 149.742 52.1234 149.221 51.6797C148.68 51.2355 148.256 50.6373 147.889 49.8841C147.541 49.1313 147.367 48.147 147.367 46.9501V44.1126C147.367 42.8963 147.541 41.9119 147.889 41.1397C148.256 40.3869 148.68 39.7887 149.221 39.3445C149.742 38.9004 150.34 38.6108 150.977 38.4373C151.614 38.2827 152.232 38.2057 152.811 38.2057C153.178 38.2057 153.545 38.2247 153.873 38.2442C154.201 38.2637 154.51 38.3022 154.78 38.3212C155.05 38.3602 155.282 38.3987 155.475 38.4373C155.649 38.4758 155.784 38.4953 155.861 38.5143C155.996 38.5528 156.093 38.5918 156.17 38.6493C156.247 38.7073 156.286 38.8234 156.286 38.9584V40.2518C156.286 40.3674 156.266 40.4639 156.208 40.5414C156.151 40.6185 156.035 40.657 155.9 40.657H155.861C155.687 40.638 155.494 40.6185 155.263 40.599C155.012 40.58 154.761 40.58 154.491 40.5605C154.22 40.5415 153.95 40.5414 153.661 40.522C153.371 40.5029 153.101 40.5029 152.85 40.5029C152.445 40.5029 152.058 40.5605 151.73 40.6765C151.383 40.8116 151.093 41.0046 150.842 41.2747C150.591 41.5643 150.398 41.9314 150.263 42.3946C150.128 42.8577 150.051 43.4369 150.051 44.1126V46.9501C150.051 47.6258 150.128 48.1855 150.263 48.6487C150.398 49.1123 150.591 49.479 150.842 49.7686C151.093 50.0581 151.383 50.2512 151.73 50.3668C152.058 50.5018 152.445 50.5598 152.85 50.5598C153.101 50.5598 153.371 50.5598 153.661 50.5408C153.95 50.5213 154.22 50.5213 154.491 50.5018C154.761 50.4828 155.012 50.4633 155.263 50.4443C155.494 50.4248 155.687 50.4248 155.861 50.4053H155.9C156.035 50.4053 156.151 50.4443 156.208 50.5213C156.266 50.5983 156.286 50.6949 156.286 50.8109V52.1043ZM167.868 40.2518C167.868 40.3484 167.829 40.4449 167.752 40.5029C167.675 40.5605 167.579 40.599 167.482 40.599H164.104V52.3164C164.104 52.413 164.065 52.5095 163.988 52.587C163.911 52.664 163.814 52.7025 163.718 52.7025H161.807C161.71 52.7025 161.614 52.664 161.537 52.587C161.459 52.5095 161.421 52.413 161.421 52.3164V40.599H158.042C157.946 40.599 157.849 40.5605 157.772 40.5029C157.695 40.4449 157.656 40.3484 157.656 40.2518V38.7268C157.656 38.6303 157.695 38.5338 157.772 38.4567C157.849 38.3987 157.946 38.3602 158.042 38.3602H167.482C167.579 38.3602 167.675 38.3987 167.752 38.4567C167.829 38.5338 167.868 38.6303 167.868 38.7268V40.2518ZM172.482 52.3164C172.482 52.413 172.443 52.5095 172.366 52.587C172.289 52.664 172.192 52.7025 172.096 52.7025H170.185C170.088 52.7025 169.991 52.664 169.914 52.587C169.837 52.5095 169.798 52.413 169.798 52.3164V38.7268C169.798 38.6303 169.837 38.5338 169.914 38.4567C169.991 38.3987 170.088 38.3602 170.185 38.3602H172.096C172.192 38.3602 172.289 38.3987 172.366 38.4567C172.443 38.5338 172.482 38.6303 172.482 38.7268V52.3164ZM185.975 46.8346C185.975 47.8959 185.84 48.8227 185.57 49.5755C185.28 50.3283 184.913 50.946 184.411 51.4286C183.929 51.9113 183.349 52.2779 182.674 52.5095C182.017 52.7411 181.284 52.8571 180.492 52.8571C179.682 52.8571 178.948 52.7411 178.292 52.5095C177.616 52.2779 177.037 51.9113 176.555 51.4286C176.072 50.946 175.686 50.3283 175.416 49.5755C175.126 48.8227 174.991 47.8959 174.991 46.8346V44.2282C174.991 43.1668 175.126 42.2595 175.416 41.4873C175.686 40.7345 176.072 40.0973 176.555 39.6147C177.037 39.132 177.616 38.7849 178.292 38.5528C178.948 38.3212 179.682 38.2057 180.492 38.2057C181.284 38.2057 182.017 38.3212 182.674 38.5528C183.349 38.7849 183.929 39.132 184.411 39.6147C184.913 40.0973 185.28 40.7345 185.57 41.4873C185.84 42.2595 185.975 43.1668 185.975 44.2282V46.8346ZM183.291 44.2282C183.291 42.9348 183.06 42.0084 182.597 41.4098C182.153 40.831 181.438 40.5414 180.492 40.5414C179.528 40.5414 178.813 40.831 178.369 41.4098C177.906 42.0084 177.674 42.9348 177.674 44.2282V46.8346C177.674 48.1275 177.906 49.0543 178.369 49.6335C178.813 50.2317 179.528 50.5213 180.492 50.5213C181.438 50.5213 182.153 50.2317 182.597 49.6335C183.06 49.0543 183.291 48.1275 183.291 46.8346V44.2282ZM199.352 51.9308C199.352 52.1429 199.275 52.3359 199.14 52.471C198.986 52.6255 198.793 52.7025 198.58 52.7025H196.63C196.399 52.7025 196.187 52.664 195.994 52.606C195.781 52.5485 195.607 52.3554 195.453 52.0078L191.168 42.6067C191.109 42.5101 191.051 42.4526 190.994 42.4526C190.936 42.4526 190.897 42.5101 190.897 42.6067V52.3164C190.897 52.413 190.858 52.5095 190.801 52.587C190.723 52.664 190.627 52.7025 190.53 52.7025H188.89C188.793 52.7025 188.697 52.664 188.62 52.587C188.542 52.5095 188.504 52.413 188.504 52.3164V39.132C188.504 38.9199 188.581 38.7268 188.735 38.5723C188.87 38.4372 189.063 38.3602 189.276 38.3602H191.361C191.573 38.3602 191.727 38.3987 191.862 38.4758C191.978 38.5528 192.094 38.7268 192.21 38.9779L196.708 48.8998C196.746 48.9963 196.804 49.0543 196.862 49.0543C196.92 49.0543 196.958 48.9963 196.958 48.8807V38.7268C196.958 38.4758 197.074 38.3602 197.326 38.3602H198.986C199.236 38.3602 199.352 38.4758 199.352 38.7268V51.9308Z" fill="#5C8EE6"/>
</g>
<defs>
<clipPath id="clip0_1_267">
<rect width="200" height="62.8571" fill="white"/>
</clipPath>
</defs>
</svg>
